first trial
nRows=39
nColumns=38

# SIMM Motion File Header:
name Sujet_02_velo_60.mvnx
datacolumns 38
datarows 39
otherdata 1
range 0.0000 0.6330
endheader
time pelvis_tilt  pelvis_list  pelvis_rotation  pelvis_tx  pelvis_ty  pelvis_tz  hip_flexion_r  hip_adduction_r  hip_rotation_r  knee_angle_r  ankle_angle_r  subtalar_angle_r  mtp_angle_r  hip_flexion_l  hip_adduction_l  hip_rotation_l  knee_angle_l  ankle_angle_l  subtalar_angle_l  mtp_angle_l  lumbar_extension  lumbar_bending  lumbar_rotation  arm_flex_r  arm_add_r  arm_rot_r  elbow_flex_r  pro_sup_r  wrist_flex_r  wrist_dev_r  arm_flex_l  arm_add_l  arm_rot_l  elbow_flex_l  pro_sup_l  wrist_flex_l  wrist_dev_l
0.0000	6.6556	0.3105	-89.5046	-0.3760	0.7379	0.8892	49.4373	-10.3493	-6.0500	94.6022	-2.4744	0.0194	-40.6015	42.9710	-1.3555	-6.6377	58.1041	-5.6249	-5.8858	-14.3177	-25.6476	3.2750	-0.0443	87.0631	-11.5470	48.3460	4.9687	90.0826	-15.3646	-3.2043	88.8789	8.8553	33.8211	-2.5692	94.5813	-17.5610	-4.8944	
0.0160	6.5612	0.2212	-89.6604	-0.3778	0.7481	0.8979	51.7719	-10.6707	-5.8755	97.1937	-1.7109	0.4211	-40.3965	40.6488	-1.8098	-7.0172	55.0781	-6.4172	-5.6366	-14.4626	-25.5589	3.3415	-0.0707	87.1290	-11.4824	48.4848	4.9567	90.1156	-15.4380	-3.1786	88.9052	8.6962	33.8975	-2.6140	94.4596	-17.6847	-5.0671	
0.0330	6.4671	0.1316	-89.8163	-0.3795	0.7582	0.9066	54.1091	-10.9849	-5.6959	99.7838	-0.9451	0.8289	-40.1916	38.3235	-2.2456	-7.4229	52.0577	-7.2086	-5.3917	-14.6075	-25.4704	3.4083	-0.0972	87.1945	-11.4175	48.6236	4.9446	90.1485	-15.5113	-3.1528	88.9315	8.5370	33.9738	-2.6581	94.3386	-17.8091	-5.2404	
0.0500	6.3555	0.0645	89.9968	-0.3814	0.7678	0.9158	55.9726	-11.1667	-5.4595	101.4042	-0.6989	1.0388	-39.3016	36.1836	-2.6392	-7.9260	49.4095	-8.0020	-5.2290	-14.9508	-25.3690	3.4582	-0.1304	87.2601	-11.3088	48.7117	4.9260	90.1815	-15.5470	-3.0994	88.9223	8.3873	34.0129	-2.6859	94.2239	-17.9187	-5.3910	
0.0660	6.2104	0.0305	89.7549	-0.3835	0.7761	0.9257	57.0692	-11.1427	-5.1511	101.4136	-1.5950	0.9780	-38.0259	34.2651	-2.9931	-8.6111	47.1900	-8.8249	-5.1544	-15.5571	-25.2346	3.4806	-0.1857	87.3228	-11.1180	48.7025	4.8987	90.2203	-15.5220	-2.9965	88.8404	8.2446	33.9888	-2.6770	94.1223	-18.0146	-5.5132	
0.0830	6.0477	0.0186	89.4822	-0.3858	0.7838	0.9361	57.6892	-10.9895	-4.7945	100.4549	-3.0101	0.7124	-36.0645	32.5314	-3.2934	-9.3845	45.3361	-9.6507	-5.1596	-16.3619	-25.0869	3.4864	-0.2474	87.3860	-10.8837	48.6421	4.8649	90.2592	-15.4597	-2.8664	88.7224	8.1119	33.9278	-2.6524	94.0263	-18.0954	-5.6126	
0.1000	5.8978	0.0196	89.2203	-0.3882	0.7917	0.9467	58.2301	-10.8031	-4.4029	99.4867	-3.5979	0.2381	-31.8301	31.0642	-3.5037	-10.0416	44.0332	-10.4026	-5.3000	-17.3698	-24.9734	3.4903	-0.2767	87.4599	-10.6770	48.6202	4.8249	90.2809	-15.3921	-2.7480	88.6430	8.0068	33.8717	-2.6583	93.9213	-18.1418	-5.6825	
0.1160	5.7739	0.0333	88.9918	-0.3908	0.8000	0.9574	58.8340	-10.6092	-3.9816	98.8742	-2.5785	-0.6031	-23.1429	29.8836	-3.6026	-10.5669	43.3503	-11.0645	-5.6432	-18.6087	-24.9166	3.4975	-0.2503	87.5726	-10.5214	48.6666	4.7765	90.2818	-15.3220	-2.6546	88.6589	7.9411	33.8329	-2.7308	93.8061	-18.1434	-5.7204	
0.1330	5.6626	0.0605	88.7743	-0.3935	0.8086	0.9683	59.3580	-10.3818	-3.5246	98.2487	-0.7159	-1.6897	-12.1603	28.9730	-3.6333	-10.9632	43.2144	-11.6542	-6.1137	-20.0508	-24.8941	3.5020	-0.1916	87.6957	-10.3930	48.7518	4.7220	90.2658	-15.2464	-2.5727	88.7140	7.9024	33.7990	-2.8340	93.6819	-18.1101	-5.7284	
0.1500	5.5538	0.0925	88.5416	-0.3963	0.8173	0.9792	59.7735	-10.1357	-3.0298	97.4707	1.0062	-2.5875	-3.8545	28.3582	-3.6725	-11.0545	43.6049	-12.1456	-6.5569	-21.6169	-24.8859	3.5018	-0.1317	87.7547	-10.2910	48.8756	4.6688	90.2271	-15.1885	-2.5017	88.7139	7.8721	33.7734	-2.9059	93.5379	-18.0525	-5.7068	
0.1660	5.4445	0.1335	88.2680	-0.3991	0.8264	0.9901	60.0757	-9.8616	-2.4201	96.4899	2.2276	-3.0962	-0.6554	28.0690	-3.7537	-10.6460	44.5718	-12.5350	-6.9399	-23.3109	-24.8891	3.4911	-0.0796	87.6885	-10.2282	49.0667	4.6252	90.1475	-15.1677	-2.4484	88.5767	7.8548	33.7562	-2.9078	93.3534	-17.9570	-5.6332	
0.1830	5.3374	0.1792	87.9794	-0.4020	0.8357	1.0011	60.2693	-9.5716	-1.7704	95.3586	3.2959	-3.3995	-0.1220	28.0747	-3.8545	-9.9306	46.0689	-12.8270	-7.3012	-25.1305	-24.9064	3.4755	-0.0264	87.5579	-10.1922	49.2966	4.5825	90.0452	-15.1645	-2.4057	88.3844	7.8464	33.7477	-2.8784	93.1488	-17.8371	-5.5300	
0.2000	5.2314	0.2095	87.7274	-0.4049	0.8451	1.0121	60.3416	-9.3147	-1.3050	94.0943	4.2791	-3.6133	0.0000	28.3099	-3.9654	-9.3165	47.9386	-13.0059	-7.5977	-26.9870	-24.9266	3.4700	0.0230	87.4716	-10.1441	49.4802	4.5228	89.9687	-15.1437	-2.3510	88.2884	7.8151	33.7517	-2.8720	92.9742	-17.7439	-5.4641	
0.2160	5.1211	0.2123	87.5253	-0.4077	0.8545	1.0230	60.2979	-9.1117	-1.1167	92.7081	5.2081	-3.7246	0.2895	28.7786	-4.0944	-8.9422	50.1959	-13.0183	-7.8151	-28.8482	-24.9483	3.4825	0.0717	87.4889	-10.0587	49.5704	4.4356	89.9434	-15.0792	-2.2617	88.3931	7.7503	33.7646	-2.9208	92.8533	-17.6910	-5.4621	
0.2330	5.0121	0.1998	87.3596	-0.4104	0.8640	1.0339	60.1344	-8.9431	-1.1100	91.1909	6.0494	-3.7454	0.1445	29.4775	-4.2312	-8.6664	52.8292	-12.9159	-7.9694	-30.7465	-24.9729	3.5053	0.1168	87.5507	-9.9609	49.6146	4.3317	89.9439	-14.9972	-2.1607	88.5942	7.6619	33.7901	-2.9923	92.7625	-17.6649	-5.4975	
0.2500	4.9183	0.1884	87.2423	-0.4131	0.8736	1.0445	59.8257	-8.7964	-1.2270	89.5305	6.7768	-3.8228	-0.0000	30.3303	-4.3387	-8.4793	55.6447	-12.8395	-8.0620	-32.6895	-24.9931	3.5302	0.1444	87.5886	-9.8862	49.6695	4.2242	89.9424	-14.9415	-2.0936	88.7296	7.5487	33.8424	-3.0435	92.6820	-17.6759	-5.5574	
0.2660	4.8392	0.1844	87.1806	-0.4158	0.8832	1.0548	59.3639	-8.6695	-1.4754	87.7146	7.3715	-4.0210	0.0000	31.3390	-4.3969	-8.4319	58.6243	-12.8236	-8.0639	-34.6956	-25.0025	3.5590	0.1428	87.5794	-9.8420	49.7597	4.1172	89.9346	-14.9367	-2.0852	88.7316	7.4032	33.9333	-3.0632	92.5849	-17.7344	-5.6462	
0.2830	4.7754	0.1817	87.1673	-0.4185	0.8930	1.0648	58.7577	-8.5600	-1.8473	85.7561	7.8498	-4.2595	0.0000	32.5017	-4.4281	-8.4752	61.7874	-12.8320	-8.0084	-36.7476	-25.0074	3.5902	0.1236	87.5465	-9.8210	49.8606	4.0065	89.9247	-14.9581	-2.1107	88.6682	7.2331	34.0509	-3.0618	92.4981	-17.8300	-5.7596	
0.3000	4.7441	0.1785	87.1912	-0.4210	0.9028	1.0744	58.0059	-8.4559	-2.2605	83.6801	8.2390	-4.4639	-0.0000	33.7356	-4.4556	-8.4498	64.9959	-12.9011	-7.9907	-38.8014	-25.0191	3.6116	0.1082	87.4901	-9.8364	49.9556	3.8932	89.8979	-14.9744	-2.1414	88.5825	7.0603	34.1733	-3.0286	92.4823	-17.9421	-5.8722	
0.3160	4.7544	0.1776	87.2539	-0.4234	0.9127	1.0836	57.1032	-8.3678	-2.6967	81.5099	8.5745	-4.6054	-0.0000	35.0217	-4.4681	-8.3223	68.2400	-13.0661	-8.0707	-42.7487	-25.0395	3.6215	0.0975	87.4109	-9.8980	50.0412	3.7706	89.8483	-14.9677	-2.1579	88.5047	6.8814	34.2945	-2.9549	92.5707	-18.0793	-5.9870	
0.3330	4.7972	0.1762	87.3537	-0.4257	0.9228	1.0924	56.0556	-8.2802	-3.1759	79.2224	8.8198	-4.7040	0.0000	36.3791	-4.4692	-8.1285	71.5285	-13.2933	-8.1911	-46.7128	-25.0667	3.6216	0.0905	87.3086	-9.9960	50.1208	3.6453	89.7818	-14.9559	-2.1798	88.4051	6.6993	34.4199	-2.8500	92.7299	-18.2329	-6.1007	
0.3500	4.8612	0.1633	87.4750	-0.4278	0.9329	1.1009	54.8795	-8.1442	-3.6717	76.7732	8.8970	-4.7661	0.0000	37.7835	-4.4971	-7.8097	74.7490	-13.5151	-8.2675	-44.9382	-25.1059	3.6052	0.1051	87.1815	-10.1153	50.1874	3.5387	89.7014	-14.9621	-2.2368	88.2355	6.5454	34.5446	-2.7304	92.9200	-18.3550	-6.1788	
0.3660	4.9447	0.1279	87.6100	-0.4296	0.9433	1.1093	53.5745	-7.9298	-4.1906	74.1517	8.8045	-4.7494	0.0000	39.2344	-4.5845	-7.3446	77.8929	-13.7304	-8.2595	-31.9573	-25.1581	3.5685	0.1594	87.0304	-10.2548	50.2383	3.4556	89.6016	-14.9951	-2.3511	87.9272	6.4293	34.6638	-2.5894	93.1330	-18.4232	-6.2059	
0.3830	5.0493	0.0810	87.7666	-0.4311	0.9537	1.1174	52.1439	-7.6611	-4.7225	71.3701	8.5459	-4.7005	0.0000	40.7345	-4.6851	-6.7517	80.9658	-13.9388	-8.2050	-13.4418	-25.2223	3.5154	0.2353	86.8541	-10.4151	50.2759	3.3913	89.4880	-15.0464	-2.5007	87.5486	6.3397	34.7811	-2.4333	93.3775	-18.4599	-6.1973	
0.4000	5.1694	0.0446	87.9509	-0.4327	0.9643	1.1252	50.6090	-7.3731	-5.2156	68.4179	8.0501	-4.7658	-0.0000	42.2637	-4.7165	-6.0343	83.8757	-14.0727	-8.1328	0.0000	-25.3014	3.4504	0.2961	86.6487	-10.5835	50.3015	3.3525	89.3802	-15.1124	-2.6504	87.2574	6.2769	34.9050	-2.2973	93.6385	-18.4847	-6.1649	
0.4160	5.3042	0.0272	88.1666	-0.4342	0.9751	1.1327	48.9639	-7.0634	-5.6533	65.2734	7.2756	-5.0358	0.0000	43.8177	-4.6526	-5.1374	86.6065	-14.0825	-8.0291	3.3010	-25.4060	3.3707	0.3324	86.3971	-10.7640	50.3198	3.3456	89.2786	-15.1847	-2.7769	87.1321	6.2413	35.0525	-2.2022	93.9132	-18.4932	-6.0998	
0.4330	5.4546	0.0198	88.4102	-0.4358	0.9859	1.1400	47.2147	-6.7338	-6.0530	61.9584	6.2628	-5.4217	0.0000	45.3986	-4.5048	-4.1256	89.1728	-14.0182	-7.9030	1.6502	-25.5261	3.2793	0.3536	86.1164	-10.9526	50.3257	3.3644	89.1830	-15.2717	-2.9034	87.0932	6.2343	35.2080	-2.1267	94.2044	-18.4898	-6.0109	
0.4500	5.6177	0.0192	88.6770	-0.4374	0.9967	1.1470	45.3989	-6.4284	-6.4168	58.5262	5.0615	-5.8004	-0.0000	46.9930	-4.2569	-3.1867	91.5312	-13.9626	-7.8151	-0.0000	-25.6333	3.1886	0.3512	85.8532	-11.1245	50.3059	3.3955	89.1123	-15.3952	-3.0643	87.0608	6.2580	35.3320	-2.0436	94.5050	-18.5081	-5.9367	
0.4660	5.8090	0.0099	88.9935	-0.4390	1.0072	1.1535	43.5619	-6.1865	-6.7664	54.7669	3.5302	-6.1471	-0.0000	48.5887	-3.9017	-2.3752	93.6720	-13.9288	-7.7663	-0.0000	-25.7195	3.1074	0.3184	85.6233	-11.2694	50.2498	3.4315	89.0816	-15.5794	-3.2916	87.0022	6.3193	35.4009	-1.9449	94.8312	-18.5793	-5.9054	
0.4830	6.0131	0.0069	89.3334	-0.4408	1.0176	1.1598	41.6565	-5.9675	-7.0863	50.8892	1.8104	-6.4803	0.0000	50.1938	-3.4523	-1.6482	95.6064	-13.9046	-7.7546	0.0000	-25.7934	3.0267	0.2620	85.4106	-11.3970	50.1684	3.4799	89.0758	-15.8013	-3.5542	86.9499	6.4114	35.4385	-1.8388	95.1668	-18.6720	-5.8887	
0.4990	6.1811	0.0511	89.6125	-0.4430	1.0276	1.1666	39.5806	-5.7005	-7.3204	47.5750	0.3762	-6.7495	-0.0000	51.8258	-2.9377	-1.0452	97.3226	-13.9349	-7.8355	0.0000	-25.8513	2.9308	0.1937	85.2145	-11.5126	50.0811	3.5500	89.0684	-16.0104	-3.7905	86.9216	6.5153	35.4756	-1.7221	95.4555	-18.7254	-5.8395	
0.5160	6.2836	0.1848	89.7845	-0.4460	1.0368	1.1745	37.1528	-5.3413	-7.4116	45.0710	-0.5604	-6.9160	-0.0000	53.5608	-2.3551	-0.6053	98.8759	-14.1424	-8.0546	-0.0000	-25.8858	2.8006	0.1111	85.0174	-11.6233	49.9907	3.6702	89.0511	-16.1994	-3.9793	86.9217	6.6315	35.5323	-1.5884	95.6677	-18.7113	-5.7354	
0.5330	6.3502	0.3669	89.8955	-0.4496	1.0457	1.1830	34.5516	-4.9525	-7.4086	43.1306	-1.2096	-7.0277	0.0000	55.3254	-1.7274	-0.2930	100.2098	-14.3968	-8.3689	0.0000	-25.9043	2.6550	0.0162	84.8371	-11.7222	49.8950	3.8126	89.0321	-16.3746	-4.1411	86.9459	6.7600	35.5885	-1.4445	95.8330	-18.6583	-5.5991	
0.5490	6.4210	0.5146	89.9997	-0.4531	1.0545	1.1915	32.2168	-4.6182	-7.4143	41.6975	-1.7291	-7.1676	0.0000	56.9129	-1.1219	-0.0245	101.1452	-14.3668	-8.7111	-0.0000	-25.9257	2.5356	-0.0735	84.7264	-11.7938	49.8052	3.9014	89.0095	-16.5064	-4.2762	86.9998	6.8820	35.6149	-1.3071	95.9840	-18.5905	-5.4515	
0.5660	6.5170	0.6025	-89.8770	-0.4566	1.0636	1.1999	30.2688	-4.3661	-7.5066	40.7416	-2.1584	-7.4216	0.0000	58.2597	-0.5396	0.2537	101.6126	-13.8348	-9.0781	-0.0000	-25.9585	2.4590	-0.1616	84.7307	-11.8283	49.7390	3.8918	88.9751	-16.5824	-4.3879	87.1099	6.9812	35.5892	-1.1763	96.1457	-18.5116	-5.2974	
0.5830	6.6166	0.6559	-89.7602	-0.4600	1.0726	1.2083	28.5876	-4.1625	-7.6126	40.2928	-2.4561	-7.7002	-0.0000	59.4293	0.0197	0.4995	101.6816	-13.0164	-9.5021	-0.0000	-25.9940	2.4087	-0.2445	84.8052	-11.8363	49.6783	3.8284	88.9374	-16.6148	-4.4727	87.2502	7.0742	35.5336	-1.0521	96.2930	-18.4182	-5.1321	
0.6000	6.6962	0.6677	-89.6733	-0.4634	1.0817	1.2168	27.2530	-3.9942	-7.6119	40.3862	-2.6618	-7.8230	-0.0000	60.4044	0.4964	0.6621	101.3818	-12.2377	-9.9599	0.0000	-26.0256	2.3768	-0.2937	84.8684	-11.8328	49.5808	3.7698	88.9197	-16.6105	-4.5213	87.3480	7.1903	35.4852	-0.9514	96.3834	-18.3233	-4.9615	
0.6160	6.7484	0.6223	-89.6323	-0.4665	1.0908	1.2254	26.2832	-3.8580	-7.3826	41.0554	-2.7757	-7.7054	-0.0000	61.1937	0.8655	0.7108	100.7223	-11.6039	-10.4971	-0.0000	-26.0504	2.3664	-0.2951	84.8961	-11.8109	49.4075	3.7309	88.9397	-16.5557	-4.5129	87.3578	7.3489	35.4586	-0.8753	96.3815	-18.2264	-4.7748	
0.6330	6.7804	0.5358	-89.6210	-0.4694	1.0998	1.2342	25.6589	-3.7650	-7.0472	42.2602	-2.8021	-7.4365	-0.0000	61.7900	1.1474	0.6888	99.6956	-11.0135	-11.0520	0.0000	-26.0711	2.3744	-0.2628	84.9124	-11.7774	49.1975	3.6968	88.9796	-16.4638	-4.4679	87.3251	7.5302	35.4393	-0.8226	96.3228	-18.1283	-4.5828	
